<svg xmlns="http://www.w3.org/2000/svg" xmlns:xlink="http://www.w3.org/1999/xlink" version="1.1" x="0px" y="0px" viewBox="0 0 60 75" style="enable-background:new 0 0 60 60;" xml:space="preserve"><path d="M11.1,25v-2.9h10.6V50h-5.3c-0.6,0-1,0.4-1,1v4c0,0.6,0.4,1,1,1h17.8c0.6,0,1-0.4,1-1v-4c0-0.6-0.4-1-1-1h-5.3V22.1h10.6V25  c0,0.6,0.4,1,1,1h4c0.6,0,1-0.4,1-1v-7.9c0-0.6-0.4-1-1-1H6.1c-0.6,0-1,0.4-1,1V25c0,0.6,0.4,1,1,1h4C10.6,26,11.1,25.6,11.1,25z   M9.1,21.1V24h-2v-5.9h36.4V24h-2v-2.9c0-0.6-0.4-1-1-1H27.8c-0.6,0-1,0.4-1,1V51c0,0.6,0.4,1,1,1h5.3v2H17.4v-2h5.3  c0.6,0,1-0.4,1-1V21.1c0-0.6-0.4-1-1-1H10.1C9.5,20.1,9.1,20.6,9.1,21.1z"/><path d="M36.5,13.1c0.2,0.2,0.5,0.3,0.7,0.3c0.3,0,0.5-0.1,0.7-0.3l2.7-2.7c0.1-0.1,0.2-0.2,0.2-0.3c0-0.1,0-0.1,0-0.2  c0-0.1,0-0.1,0-0.2c0,0,0,0,0,0c0-0.1,0-0.3-0.1-0.4c0,0,0,0,0,0c0-0.1-0.1-0.2-0.2-0.3l-2.7-2.7c-0.4-0.4-1-0.4-1.4,0s-0.4,1,0,1.4  l1,1H13l1-1c0.4-0.4,0.4-1,0-1.4c-0.4-0.4-1-0.4-1.4,0L9.9,9C9.8,9.1,9.7,9.2,9.6,9.3c0,0.1,0,0.1,0,0.2c0,0.1,0,0.1,0,0.2  c0,0,0,0,0,0c0,0.1,0,0.3,0.1,0.4c0,0,0,0,0,0c0,0.1,0.1,0.2,0.2,0.3l2.7,2.7c0.2,0.2,0.5,0.3,0.7,0.3s0.5-0.1,0.7-0.3  c0.4-0.4,0.4-1,0-1.4l-1-1h24.6l-1,1C36.1,12.1,36.1,12.7,36.5,13.1z"/><path d="M53.4,47.3l-1,1V23.8l1,1c0.4,0.4,1,0.4,1.4,0c0.4-0.4,0.4-1,0-1.4l-2.7-2.7c-0.1-0.1-0.2-0.2-0.3-0.2c-0.1,0-0.2,0-0.3-0.1  c0,0-0.1,0-0.1,0c0,0,0,0,0,0c-0.1,0-0.3,0-0.4,0.1c0,0,0,0,0,0c-0.1,0-0.2,0.1-0.3,0.2l-2.7,2.7c-0.4,0.4-0.4,1,0,1.4  c0.2,0.2,0.5,0.3,0.7,0.3s0.5-0.1,0.7-0.3l1-1v24.6l-1-1c-0.4-0.4-1-0.4-1.4,0c-0.4,0.4-0.4,1,0,1.4l2.7,2.7  c0.1,0.1,0.2,0.2,0.3,0.2c0.1,0,0.2,0,0.2,0c0,0,0.1,0,0.1,0c0,0,0,0,0,0s0,0,0,0c0.3,0,0.5-0.1,0.7-0.3l2.7-2.7  c0.4-0.4,0.4-1,0-1.4S53.7,47,53.4,47.3z"/><text x="0" y="75" fill="#000000" font-size="5px" font-weight="bold" font-family="'Helvetica Neue', Helvetica, Arial-Unicode, Arial, Sans-serif">Created by Vectorstall</text><text x="0" y="80" fill="#000000" font-size="5px" font-weight="bold" font-family="'Helvetica Neue', Helvetica, Arial-Unicode, Arial, Sans-serif">from the Noun Project</text></svg>