<svg xmlns="http://www.w3.org/2000/svg" xmlns:xlink="http://www.w3.org/1999/xlink" version="1.1" x="0px" y="0px" viewBox="0 0 96 120" enable-background="new 0 0 96 96" xml:space="preserve"><path d="M56,75.752H40c-1.104,0-2,0.9-2,2v16c0,1.1,0.896,2,2,2h16c1.1,0,2-0.9,2-2v-16C58,76.648,57.1,75.752,56,75.752z"/><path d="M84,75.752h-5.952L53.796,2.984c-0.548-1.632-2.08-2.736-3.8-2.736c-1.724,0-3.252,1.1-3.796,2.736L21.948,75.752H12  c-1.104,0-2,0.9-2,2v16c0,1.1,0.896,2,2,2h16c1.104,0,2-0.9,2-2v-16c0-0.188-0.06-0.359-0.104-0.531l3.156-9.469h33.904l2.664,8H68  c-1.1,0-2,0.9-2,2v16c0,1.1,0.9,2,2,2h16c1.107,0,2-0.9,2-2v-16C86,76.648,85.1,75.752,84,75.752z M35.712,59.752L50,16.9  l14.284,42.852H35.712z"/><text x="0" y="111" fill="#000000" font-size="5px" font-weight="bold" font-family="'Helvetica Neue', Helvetica, Arial-Unicode, Arial, Sans-serif">Created by iconsmind.com</text><text x="0" y="116" fill="#000000" font-size="5px" font-weight="bold" font-family="'Helvetica Neue', Helvetica, Arial-Unicode, Arial, Sans-serif">from the Noun Project</text></svg>