<svg xmlns="http://www.w3.org/2000/svg" xmlns:xlink="http://www.w3.org/1999/xlink" version="1.1" x="0px" y="0px" viewBox="0 0 60 72.5" enable-background="new 0 0 60 58" xml:space="preserve"><g><path d="M0,0v58h60V0H0z M58,56H2V2h56V56z"/><path d="M27,49h-9c-0.55,0-1,0.45-1,1s0.45,1,1,1h9c1.2,0,2.27-0.54,3-1.38c0.73,0.84,1.8,1.38,3,1.38h9c0.55,0,1-0.45,1-1   s-0.45-1-1-1h-9c-1.1,0-2-0.9-2-2V29h4c0.55,0,1-0.45,1-1s-0.45-1-1-1h-4V11c0-1.1,0.9-2,2-2h9c0.55,0,1-0.45,1-1s-0.45-1-1-1h-9   c-1.2,0-2.27,0.54-3,1.38C29.27,7.54,28.2,7,27,7h-9c-0.55,0-1,0.45-1,1s0.45,1,1,1h9c1.1,0,2,0.9,2,2v16h-4c-0.55,0-1,0.45-1,1   s0.45,1,1,1h4v18C29,48.1,28.1,49,27,49z"/></g><text x="0" y="73" fill="#000000" font-size="5px" font-weight="bold" font-family="'Helvetica Neue', Helvetica, Arial-Unicode, Arial, Sans-serif">Created by Ben Davis</text><text x="0" y="78" fill="#000000" font-size="5px" font-weight="bold" font-family="'Helvetica Neue', Helvetica, Arial-Unicode, Arial, Sans-serif">from the Noun Project</text></svg>