<svg xmlns="http://www.w3.org/2000/svg" data-name="Layer 1" viewBox="0 0 100 125" x="0px" y="0px"><title>95all</title><path d="M83.28,28.22a10,10,0,0,0-10-10H26.72a10,10,0,0,0-10,10V71.78a10,10,0,0,0,10,10H73.28a10,10,0,0,0,10-10Zm-4,43.55a6,6,0,0,1-6,6H26.72a6,6,0,0,1-6-6V28.22a6,6,0,0,1,6-6H73.28a6,6,0,0,1,6,6Z"/><path d="M67.25,33H32.75a2,2,0,0,0,0,4h34.5a2,2,0,0,0,0-4Z"/><path d="M61.25,47a2,2,0,0,0,0-4H38.75a2,2,0,0,0,0,4Z"/><path d="M67.25,53H32.75a2,2,0,0,0,0,4h34.5a2,2,0,0,0,0-4Z"/><path d="M61.25,63H38.75a2,2,0,0,0,0,4h22.5a2,2,0,1,0,0-4Z"/><text x="0" y="115" fill="#000000" font-size="5px" font-weight="bold" font-family="'Helvetica Neue', Helvetica, Arial-Unicode, Arial, Sans-serif">Created by Lalitha</text><text x="0" y="120" fill="#000000" font-size="5px" font-weight="bold" font-family="'Helvetica Neue', Helvetica, Arial-Unicode, Arial, Sans-serif">from the Noun Project</text></svg>