<svg xmlns="http://www.w3.org/2000/svg" xmlns:xlink="http://www.w3.org/1999/xlink" version="1.1" x="0px" y="0px" viewBox="0 0 96 120" enable-background="new 0 0 96 96" xml:space="preserve"><path d="M36.452,9.504c-0.536-1.648-2.072-2.756-3.804-2.756s-3.264,1.108-3.808,2.756L4.508,84.008  c-0.684,2.092,0.46,4.36,2.56,5.049c2.1,0.68,4.36-0.461,5.044-2.564l5.632-17.252h29.8l5.632,17.252  c0.557,1.688,2.116,2.752,3.805,2.752c0.416,0,0.836-0.064,1.248-0.196c2.096-0.688,3.248-2.937,2.56-5.048L36.452,9.504  L36.452,9.504z M20.364,61.252l12.288-37.62l12.288,37.62H20.364z"/><path d="M88.305,39.28c-1.961-1.96-4.753-2.952-8.297-2.952c-4.896,0-7.576,2.36-9.936,4.444l-0.336,0.296  c-1.66,1.452-1.824,3.984-0.364,5.644s3.983,1.82,5.647,0.364l0.345-0.304c2.155-1.9,2.856-2.444,4.644-2.444  c1.309,0,2.244,0.22,2.633,0.604c0.795,0.796,0.991,3.24,1.035,5.888c-15.508,1.943-21.424,15.023-21.424,23.516  c0,14.916,14.352,14.916,19.072,14.916h6.367c2.209,0,4-1.779,4-4V53.5C91.684,47.944,91.708,42.692,88.305,39.28L88.305,39.28z   M81.316,81.252c-9.412,0-11.068-2.229-11.068-6.916c0-3.943,2.531-13.564,13.428-15.452v22.368H81.316z"/><text x="0" y="111" fill="#000000" font-size="5px" font-weight="bold" font-family="'Helvetica Neue', Helvetica, Arial-Unicode, Arial, Sans-serif">Created by iconsmind.com</text><text x="0" y="116" fill="#000000" font-size="5px" font-weight="bold" font-family="'Helvetica Neue', Helvetica, Arial-Unicode, Arial, Sans-serif">from the Noun Project</text></svg>