<svg height='100px' width='100px'  fill="#000000" xmlns="http://www.w3.org/2000/svg" xmlns:xlink="http://www.w3.org/1999/xlink" version="1.1" x="0px" y="0px" viewBox="0 0 100 100" enable-background="new 0 0 100 100" xml:space="preserve"><path d="M77.6,17.3H23.4c-1.8,0-3.3,1.5-3.3,3.3v17.3c0,1.8,1.5,3.3,3.3,3.3h8.1c1.8,0,3.3-1.5,3.3-3.3V32H43v38.9h-7.6  c-1.7,0-3.1,1.4-3.1,3.1v8.5c0,1.7,1.4,3.1,3.1,3.1h8c0.1,0,0.2,0.1,0.3,0.1h13.5c0.1,0,0.2,0,0.2-0.1h7.8c1.7,0,3.1-1.4,3.1-3.1V74  c0-1.7-1.4-3.1-3.1-3.1h-7.4V32h8.4v5.9c0,1.8,1.5,3.3,3.3,3.3h8.1c1.8,0,3.3-1.5,3.3-3.3V20.6C81,18.8,79.5,17.3,77.6,17.3z   M79.7,37.9c0,1.2-0.9,2.1-2.1,2.1h-8.1c-1.2,0-2.1-0.9-2.1-2.1v-6.5c0-0.3-0.3-0.6-0.6-0.6h-9.6c-0.3,0-0.6,0.3-0.6,0.6v40.1  c0,0.3,0.3,0.6,0.6,0.6h8.1c1,0,1.9,0.9,1.9,1.9v8.5c0,1-0.9,1.9-1.9,1.9h-8.1c-0.1,0-0.2,0-0.3,0.1h-13c-0.1,0-0.2-0.1-0.3-0.1  h-8.3c-1,0-1.9-0.9-1.9-1.9V74c0-1,0.9-1.9,1.9-1.9h8.3c0.3,0,0.6-0.3,0.6-0.6V31.4c0-0.3-0.3-0.6-0.6-0.6h-9.5  c-0.3,0-0.6,0.3-0.6,0.6v6.5c0,1.2-0.9,2.1-2.1,2.1h-8.1c-1.2,0-2.1-0.9-2.1-2.1V20.6c0-1.2,0.9-2.1,2.1-2.1h54.2  c1.2,0,2.1,0.9,2.1,2.1V37.9z"></path></svg>