<svg xmlns="http://www.w3.org/2000/svg" viewBox="0 0 24 30" x="0px" y="0px"><title>text background</title><path d="M12,19H11V5h3V6a1,1,0,0,0,2,0V4a.99974.99974,0,0,0-1-1H5A.99974.99974,0,0,0,4,4V6A1,1,0,0,0,6,6V5H9V19H8a1,1,0,0,0,0,2h4a1,1,0,0,0,0-2ZM18,8H13.05371a1,1,0,0,0,0,2H18v6H13.09961a1,1,0,1,0,0,2H18a2.00229,2.00229,0,0,0,2-2V10A2.00229,2.00229,0,0,0,18,8ZM8,17V9A1,1,0,0,0,6,9v8a1,1,0,0,0,2,0Z"/><text x="0" y="39" fill="#000000" font-size="5px" font-weight="bold" font-family="'Helvetica Neue', Helvetica, Arial-Unicode, Arial, Sans-serif">Created by kreationspace</text><text x="0" y="44" fill="#000000" font-size="5px" font-weight="bold" font-family="'Helvetica Neue', Helvetica, Arial-Unicode, Arial, Sans-serif">from the Noun Project</text></svg>